<svg width="24" height="24" viewBox="0 0 24 24" fill="none" xmlns="http://www.w3.org/2000/svg">
<g id="nav--cart--header" clip-path="url(#clip0_3000_2189)">
<path id="Vector" d="M21.7 5.9002C21.7 5.5002 21.3 5.2002 21 5.2002H17V5.0002V4.8002C16.8 2.2002 14.7 0.200195 12.1 0.200195C9.39997 0.200195 7.19997 2.3002 7.09997 5.0002V5.2002H2.99997C2.59997 5.2002 2.29997 5.5002 2.29997 5.9002L0.299966 22.3002C0.199966 22.7002 0.599966 23.1002 0.999966 23.1002H23C23.5 23.1002 23.8 22.7002 23.7 22.3002L21.7 5.9002ZM8.59997 5.1002V4.9002C8.79997 3.1002 10.3 1.8002 12.1 1.8002C14 1.8002 15.5 3.3002 15.6 5.1002V5.3002H8.59997V5.1002ZM1.79997 21.7002L3.69997 6.8002H6.99997L6.79997 10.2002C6.29997 10.4002 5.99997 10.9002 5.99997 11.5002C5.99997 12.3002 6.69997 13.0002 7.49997 13.0002C8.29997 13.0002 8.99997 12.3002 8.99997 11.5002C8.99997 11.0002 8.69997 10.5002 8.29997 10.2002L8.49997 6.7002H15.6L15.7 10.2002C15.3 10.5002 15 11.0002 15 11.5002C15 12.3002 15.7 13.0002 16.5 13.0002C17.3 13.0002 18 12.3002 18 11.5002C18 10.9002 17.7 10.4002 17.2 10.2002L17.1 6.8002H20.4L22.2 21.7002H1.79997Z" fill="#1E212C"/>
</g>
<defs>
<clipPath id="clip0_3000_2189">
<rect width="24" height="24" fill="white"/>
</clipPath>
</defs>
</svg>
