<svg width="24" height="24" viewBox="0 0 24 24" fill="none" xmlns="http://www.w3.org/2000/svg">
<g id="icon--heart--header">
<path id="Vector" d="M21.6 2.29993C19.2 0.399929 16.2 0.599929 13.7 2.29993C13.1 2.69993 12.5 3.29993 12 3.99993C11.5 3.29993 10.9 2.69993 10.3 2.29993C7.79999 0.599929 4.79999 0.299929 2.39999 2.29993C-0.200008 4.39993 -0.500008 8.29993 1.39999 11.4999C1.49999 11.5999 1.49999 11.6999 1.59999 11.7999L1.79999 12.0999L1.99999 12.3999C1.99999 12.4999 2.09999 12.4999 2.09999 12.5999L2.29999 12.9999L2.59999 13.3999L2.99999 13.7999L3.39999 14.1999L3.79999 14.6999L4.39999 15.3999L4.89999 15.8999L5.69999 16.6999L6.19999 17.2999L6.79999 17.8999L7.69999 18.7999L8.29999 19.3999L8.99999 20.0999L10.1 21.1999L11.2 22.2999C11.5 22.5999 11.9 22.5999 12.2 22.2999C12.2 22.2999 12.3 22.2999 12.3 22.1999C12.7 21.8999 13 21.4999 13.4 21.1999L14.4 20.2999L15.4 19.3999C15.6 19.2999 15.7 19.0999 15.9 18.9999L16.8 18.1999L17.7 17.2999L18.6 16.3999L19.2 15.7999L19.7 15.2999L20.2 14.7999L20.6 14.2999L21 13.7999C21.1 13.6999 21.1 13.6999 21.2 13.5999L21.6 13.1999C21.7 13.0999 21.7 13.0999 21.8 12.9999L22.1 12.5999L22.4 12.1999C22.6 11.9999 22.7 11.7999 22.8 11.5999C24.5 8.29993 24.2 4.39993 21.6 2.29993ZM11.5 8.19993C11.6 7.89993 11.7 7.49993 11.9 7.09993L12 6.89993L12.1 7.09993C12.3 7.49993 12.4 7.89993 12.5 8.19993C12.7 8.89993 12.4 9.19993 12 9.19993C11.6 9.19993 11.3 8.79993 11.5 8.19993ZM21.3 10.7999C21.3 10.8999 21.2 10.9999 21.2 10.9999L21 11.2999L20.9 11.3999L20.7 11.6999L20.5 11.9999L20.2 12.2999L19.9 12.6999L19.6 13.0999L19.2 13.4999L18.6 14.0999L18.2 14.4999L17.5 15.1999L16.7 15.9999L16.2 16.4999L15.3 17.2999L14.1 18.4999L12.8 19.6999L11.8 20.5999L10.9 19.6999L9.59999 18.3999L8.69999 17.4999L7.89999 16.5999L6.99999 15.8999L6.29999 15.0999L5.79999 14.5999L5.19999 13.9999L4.79999 13.5999L4.39999 13.1999L4.09999 12.7999L3.69999 12.2999L3.39999 11.9999L3.19999 11.6999L2.99999 11.2999L2.79999 10.9999C2.69999 10.8999 2.69999 10.7999 2.59999 10.7999C1.09999 8.19993 1.29999 5.09993 3.29999 3.49993C5.09999 1.99993 7.39999 2.19993 9.39999 3.59993C9.99999 3.99993 10.6 4.59993 11.1 5.39993C10.6 6.29993 10.2 7.09993 9.99999 7.79993C9.59999 9.29993 10.5 10.6999 12 10.7999C13.5 10.7999 14.4 9.39993 14 7.89993V7.79993V7.69993C14 7.69993 14 7.69993 14 7.59993C13.8 6.89993 13.4 6.19993 13 5.39993C13.4 4.59993 14 3.99993 14.5 3.59993C16.5 2.19993 18.8 1.99993 20.6 3.49993C22.7 5.09993 22.9 8.19993 21.3 10.7999Z" fill="#1E212C"/>
</g>
</svg>
