<svg width="20" height="20" viewBox="0 0 20 20" fill="none" xmlns="http://www.w3.org/2000/svg">
<path id="Vector" d="M19.8087 18.8783L14.9628 13.9683C16.238 12.4444 17.0882 10.582 17.0882 8.46561C17.0032 3.80952 13.2625 0 8.50159 0C3.7407 0 0 3.80952 0 8.46561C0 13.1217 3.82572 16.9312 8.50159 16.9312C10.542 16.9312 12.4973 16.1693 14.0276 14.8995L18.8735 19.8095C19.1286 20.0635 19.5537 20.0635 19.8087 19.8095C20.0638 19.6402 20.0638 19.2169 19.8087 18.8783ZM1.27524 8.46561C1.27524 4.57143 4.42083 1.3545 8.41658 1.3545C12.4123 1.3545 15.5579 4.48677 15.5579 8.46561C15.5579 12.4444 12.4123 15.5767 8.41658 15.5767C4.42083 15.5767 1.27524 12.4444 1.27524 8.46561Z" fill="#1E212C"/>
</svg>
