<svg width="24" height="24" viewBox="0 0 24 24" fill="none" xmlns="http://www.w3.org/2000/svg">
<g id="nav--profile">
<g id="Group">
<path id="Vector" d="M22.6999 22.6998C20.2999 17.4998 16.6999 14.7998 11.9999 14.7998C7.3999 14.7998 3.7999 17.3998 1.2999 22.5998C1.0999 22.9998 1.2999 23.3998 1.6999 23.5998C2.0999 23.7998 2.4999 23.5998 2.6999 23.1998C4.8999 18.5998 7.9999 16.2998 11.9999 16.2998C15.9999 16.2998 19.0999 18.5998 21.2999 23.3998C21.4999 23.7998 21.8999 23.8998 22.2999 23.7998C22.6999 23.4998 22.8999 23.0998 22.6999 22.6998Z" fill="#1E212C"/>
<path id="Vector_2" d="M12.5 12.8002C16 12.8002 18.7 10.0002 18.7 6.6002C18.7 3.2002 16 0.200195 12.5 0.200195C8.99995 0.200195 6.19995 3.0002 6.19995 6.5002C6.19995 10.0002 8.99995 12.8002 12.5 12.8002ZM12.5 1.8002C15.1 1.8002 17.3 3.9002 17.3 6.6002C17.3 9.3002 15.2 11.4002 12.5 11.4002C9.79995 11.4002 7.79995 9.10019 7.79995 6.5002C7.79995 3.9002 9.89995 1.8002 12.5 1.8002Z" fill="#1E212C"/>
</g>
</g>
</svg>
